<svg version="1.1" viewBox="0.0 0.0 100.0 100.0" fill="none" stroke="none" stroke-linecap="square" stroke-miterlimit="10" xmlns:xlink="http://www.w3.org/1999/xlink" xmlns="http://www.w3.org/2000/svg"><clipPath id="p.0"><path d="m0 0l100.0 0l0 100.0l-100.0 0l0 -100.0z" clip-rule="nonzero"/></clipPath><g clip-path="url(#p.0)"><path fill="#000000" fill-opacity="0.0" d="m0 0l100.0 0l0 100.0l-100.0 0z" fill-rule="evenodd"/><path fill="#000000" d="m2.816273 18.543621l0 0c0 -8.685974 7.041374 -15.727348 15.727348 -15.727348l62.907505 0l0 0c4.171158 0 8.171471 1.6569836 11.120918 4.606434c2.9494476 2.9494505 4.60643 6.9497623 4.60643 11.120914l0 62.907505c0 8.685974 -7.041374 15.727348 -15.727348 15.727348l-62.907505 0c-8.685974 0 -15.727348 -7.041374 -15.727348 -15.727348z" fill-rule="evenodd"/><path fill="#000000" fill-opacity="0.0" d="m2.816273 1.5249344l92.031494 0l0 96.944885l-92.031494 0z" fill-rule="evenodd"/><path fill="#f6f6f8" d="m62.230457 57.39112l6.250004 0l-1.59375 9.09375l-6.250004 0l-2.15625 12.3125l-11.015625 0l2.15625 -12.3125l-22.578125 0l0.78125 -7.6875l29.015625 -36.875l11.531254 0l-6.140629 35.46875zm-22.96875 -0.078125l11.953125 0.078125l3.875 -20.234375l-1.015625 1.40625l-14.8125 18.75z" fill-rule="nonzero"/></g></svg>