<svg version="1.1" viewBox="0.0 0.0 182.26771653543307 100.0" fill="none" stroke="none" stroke-linecap="square" stroke-miterlimit="10" xmlns:xlink="http://www.w3.org/1999/xlink" xmlns="http://www.w3.org/2000/svg"><clipPath id="p.0"><path d="m0 0l182.26772 0l0 100.0l-182.26772 0l0 -100.0z" clip-rule="nonzero"/></clipPath><g clip-path="url(#p.0)"><path fill="#000000" fill-opacity="0.0" d="m0 0l182.26772 0l0 100.0l-182.26772 0z" fill-rule="evenodd"/><path fill="#000000" fill-opacity="0.0" d="m-1.3123359E-5 12.834645l182.26772 0l0 74.3307l-182.26772 0z" fill-rule="evenodd"/>
<path fill="#212121" d="m46.660717 64.55777q0 0.21875 -0.125 0.40625q-0.125 0.171875 -0.453125 0.28125q-0.3125 0.109375 -0.84375 0.171875q-0.53125 0.0625 -1.34375 0.0625q-0.796875 0 -1.328125 -0.0625q-0.53125 -0.0625 -0.84375 -0.171875q-0.3125 -0.109375 -0.453125 -0.28125q-0.125 -0.1875 -0.125 -0.40625l0 -23.312504l-0.046875 0l-8.296875 23.296879q-0.09375 0.28125 -0.296875 0.46875q-0.1875 0.1875 -0.5312519 0.296875q-0.34375 0.109375 -0.875 0.140625q-0.53125 0.03125 -1.28125 0.03125q-0.75 0 -1.28125 -0.0625q-0.53125 -0.046875 -0.875 -0.15625q-0.34375 -0.125 -0.546875 -0.296875q-0.203125 -0.1875 -0.265625 -0.421875l-8.015625 -23.296879l-0.046875 0l0 23.312504q0 0.21875 -0.125 0.40625q-0.109375 0.171875 -0.453125 0.28125q-0.328125 0.109375 -0.84375 0.171875q-0.515625 0.0625 -1.34375 0.0625q-0.796875 0 -1.328125 -0.0625q-0.53125 -0.0625 -0.859375 -0.171875q-0.3125 -0.109375 -0.4375 -0.28125q-0.109375 -0.1875 -0.109375 -0.40625l0 -25.515629q0 -1.125 0.59375 -1.71875q0.59375 -0.609375 1.59375 -0.609375l3.8125 0q1.015625 0 1.734375 0.171875q0.734375 0.15625 1.265625 0.546875q0.53125 0.390625 0.890625 1.03125q0.359375 0.625 0.625 1.546875l6.1875 17.0625l0.09375 0l6.421877 -17.015625q0.28125 -0.9375 0.625 -1.578125q0.34375 -0.640625 0.796875 -1.03125q0.453125 -0.40625 1.0625 -0.5625q0.625 -0.171875 1.453125 -0.171875l3.90625 0q0.609375 0 1.03125 0.15625q0.4375 0.15625 0.703125 0.453125q0.28125 0.296875 0.421875 0.734375q0.15625 0.421875 0.15625 0.984375l0 25.515629zm29.695965 -1.3750038q0.265625 0.796875 0.328125 1.2656288q0.078125 0.46875 -0.171875 0.703125q-0.234375 0.21875 -0.859375 0.265625q-0.625 0.0625 -1.703125 0.0625q-1.125 0 -1.765625 -0.03125q-0.625 -0.03125 -0.96875 -0.125q-0.328125 -0.09375 -0.46875 -0.265625q-0.125 -0.1875 -0.203125 -0.484375l-1.9375 -5.750004l-10.749996 0l-1.8125 5.609379q-0.09375 0.296875 -0.234375 0.515625q-0.140625 0.203125 -0.46875 0.328125q-0.3125 0.125 -0.90625 0.15625q-0.578125 0.046875 -1.53125 0.046875q-1.015625 0 -1.59375 -0.0625q-0.578125 -0.0625 -0.796875 -0.3125q-0.21875 -0.265625 -0.15625 -0.71875q0.0625 -0.4687538 0.328125 -1.2500038l8.828125 -25.40625q0.140625 -0.375 0.3125 -0.609375q0.171875 -0.234375 0.5625 -0.34375q0.390625 -0.125 1.078125 -0.15625q0.6875 -0.03125 1.8125 -0.03125q1.3124962 0 2.0781212 0.03125q0.78125 0.03125 1.203125 0.15625q0.4375 0.109375 0.625 0.359375q0.1875 0.25 0.328125 0.65625l8.84375 25.390625zm-13.140621 -21.0l-0.03125 0l-4.046875 12.171875l8.124996 0l-4.046871 -12.171875zm38.4044 22.421879q0 0.234375 -0.09375 0.40625q-0.09375 0.171875 -0.421875 0.28125q-0.328125 0.109375 -0.96875 0.140625q-0.640625 0.046875 -1.75 0.046875q-0.9375 0 -1.5 -0.046875q-0.546875 -0.03125 -0.875 -0.15625q-0.3125 -0.125 -0.453125 -0.3125q-0.125 -0.1875 -0.203125 -0.453125l-2.578125 -6.390629q-0.453125 -1.09375 -0.90625 -1.921875q-0.4375 -0.84375 -0.984375 -1.40625q-0.53125 -0.578125 -1.25 -0.859375q-0.703125 -0.28125 -1.640625 -0.28125l-1.8125 0l0 10.906254q0 0.21875 -0.140625 0.40625q-0.140625 0.171875 -0.484375 0.28125q-0.328125 0.109375 -0.875 0.171875q-0.546875 0.0625 -1.421875 0.0625q-0.84375 0 -1.40625 -0.0625q-0.5625 -0.0625 -0.890625 -0.171875q-0.328125 -0.109375 -0.46875 -0.28125q-0.125 -0.1875 -0.125 -0.40625l0 -26.000004q0 -0.984375 0.484375 -1.40625q0.5 -0.4375 1.234375 -0.4375l7.421875 0q1.125 0 1.84375 0.046875q0.734375 0.046875 1.34375 0.109375q1.71875 0.25 3.09375 0.84375q1.390625 0.59375 2.359375 1.5625q0.96875 0.953125 1.46875 2.28125q0.515625 1.3125 0.515625 3.015625q0 1.4375 -0.375 2.625q-0.359375 1.1875 -1.078125 2.125q-0.703125 0.921875 -1.75 1.609375q-1.03125 0.671875 -2.359375 1.09375q0.640625 0.3125 1.203125 0.765625q0.5625 0.4375 1.0625 1.0625q0.5 0.625 0.9375 1.4375q0.453125 0.8125 0.875 1.828125l2.40625 5.640625q0.328125 0.84375 0.4375 1.234375q0.125 0.3906288 0.125 0.6093788zm-7.515625 -19.437504q0 -1.421875 -0.640625 -2.390625q-0.640625 -0.96875 -2.09375 -1.375q-0.453125 -0.109375 -1.015625 -0.171875q-0.5625 -0.0625 -1.5625 -0.0625l-2.609375 0l0 8.125l2.96875 0q1.234375 0 2.15625 -0.296875q0.9375 -0.3125 1.5625 -0.84375q0.625 -0.546875 0.921875 -1.296875q0.3125 -0.75 0.3125 -1.6875zm32.691086 19.328129q0 0.234375 -0.125 0.421875q-0.109375 0.1875 -0.453125 0.3125q-0.34375 0.125 -0.953125 0.1875q-0.59375 0.0625 -1.5 0.0625q-1.4375 0 -2.078125 -0.109375q-0.625 -0.109375 -0.90625 -0.328125q-0.265625 -0.21875 -0.421875 -0.53125l-8.65625 -13.593754l0 13.593754q0 0.25 -0.140625 0.421875q-0.125 0.171875 -0.453125 0.296875q-0.328125 0.125 -0.890625 0.1875q-0.546875 0.0625 -1.40625 0.0625q-0.84375 0 -1.40625 -0.0625q-0.5625 -0.0625 -0.90625 -0.1875q-0.328125 -0.125 -0.46875 -0.296875q-0.140625 -0.171875 -0.140625 -0.421875l0 -26.984379q0 -0.234375 0.140625 -0.40625q0.140625 -0.1875 0.46875 -0.296875q0.34375 -0.109375 0.90625 -0.171875q0.5625 -0.0625 1.40625 -0.0625q0.859375 0 1.40625 0.0625q0.5625 0.0625 0.890625 0.171875q0.328125 0.109375 0.453125 0.296875q0.140625 0.171875 0.140625 0.40625l0 12.203125l8.390625 -12.171875q0.15625 -0.296875 0.375 -0.484375q0.21875 -0.1875 0.578125 -0.296875q0.359375 -0.109375 0.90625 -0.140625q0.5625 -0.046875 1.421875 -0.046875q0.875 0 1.453125 0.0625q0.578125 0.0625 0.921875 0.1875q0.34375 0.125 0.46875 0.296875q0.140625 0.171875 0.140625 0.390625q0 0.390625 -0.203125 0.796875q-0.203125 0.390625 -0.75 1.25l-7.859375 10.28125l8.5625 12.953125q0.5 0.90625 0.59375 1.2031288q0.09375 0.296875 0.09375 0.484375zm20.85131 -1.4218788q0 0.640625 -0.0625 1.0781288q-0.046875 0.421875 -0.15625 0.6875q-0.109375 0.265625 -0.28125 0.390625q-0.15625 0.125 -0.359375 0.125l-14.390625 0q-0.734375 0 -1.234375 -0.421875q-0.484375 -0.4375 -0.484375 -1.4218788l0 -24.953125q0 -0.984375 0.484375 -1.40625q0.5 -0.4375 1.234375 -0.4375l14.296875 0q0.203125 0 0.359375 0.109375q0.15625 0.109375 0.265625 0.390625q0.109375 0.28125 0.15625 0.71875q0.0625 0.421875 0.0625 1.078125q0 0.625 -0.0625 1.0625q-0.046875 0.421875 -0.15625 0.6875q-0.109375 0.265625 -0.265625 0.390625q-0.15625 0.125 -0.359375 0.125l-10.21875 0l0 6.984375l8.65625 0q0.1875 0 0.359375 0.125q0.171875 0.125 0.28125 0.390625q0.109375 0.25 0.15625 0.6875q0.0625 0.421875 0.0625 1.046875q0 0.640625 -0.0625 1.0625q-0.046875 0.40625 -0.15625 0.671875q-0.109375 0.25 -0.28125 0.359375q-0.171875 0.109375 -0.359375 0.109375l-8.65625 0l0 8.078125l10.3125 0q0.203125 0 0.359375 0.125q0.171875 0.125 0.28125 0.390625q0.109375 0.265625 0.15625 0.703125q0.0625 0.421875 0.0625 1.0625zm24.188873 -23.96875q0 0.640625 -0.0625 1.09375q-0.046875 0.453125 -0.15625 0.734375q-0.109375 0.28125 -0.28125 0.421875q-0.15625 0.125 -0.359375 0.125l-7.171875 0l0 23.078129q0 0.21875 -0.140625 0.40625q-0.140625 0.171875 -0.484375 0.28125q-0.328125 0.109375 -0.890625 0.171875q-0.5625 0.0625 -1.40625 0.0625q-0.84375 0 -1.40625 -0.0625q-0.5625 -0.0625 -0.890625 -0.171875q-0.328125 -0.109375 -0.484375 -0.28125q-0.140625 -0.1875 -0.140625 -0.40625l0 -23.078129l-7.171875 0q-0.21875 0 -0.375 -0.125q-0.15625 -0.140625 -0.265625 -0.421875q-0.109375 -0.28125 -0.171875 -0.734375q-0.046875 -0.453125 -0.046875 -1.09375q0 -0.65625 0.046875 -1.125q0.0625 -0.46875 0.171875 -0.734375q0.109375 -0.28125 0.265625 -0.40625q0.15625 -0.125 0.375 -0.125l20.1875 0q0.203125 0 0.359375 0.125q0.171875 0.125 0.28125 0.40625q0.109375 0.265625 0.15625 0.734375q0.0625 0.46875 0.0625 1.125z" fill-rule="nonzero"/></g></svg>