<svg version="1.1" viewBox="0.0 0.0 207.46719160104988 100.0" fill="none" stroke="none" stroke-linecap="square" stroke-miterlimit="10" xmlns:xlink="http://www.w3.org/1999/xlink" xmlns="http://www.w3.org/2000/svg"><clipPath id="p.0"><path d="m0 0l207.4672 0l0 100.0l-207.4672 0l0 -100.0z" clip-rule="nonzero"/></clipPath><g clip-path="url(#p.0)"><path fill="#000000" fill-opacity="0.0" d="m0 0l207.4672 0l0 100.0l-207.4672 0z" fill-rule="evenodd"/><path fill="#000000" fill-opacity="0.0" d="m0 12.834645l207.46457 0l0 74.3307l-207.46457 0z" fill-rule="evenodd"/><path fill="#212121" d="m33.71891 45.41714q0 2.40625 -0.765625 4.265625q-0.75 1.859375 -2.1875 3.140625q-1.4375 1.265625 -3.53125 1.9375q-2.078125 0.65625 -4.921875 0.65625l-2.390625 0l0 9.140629q0 0.21875 -0.140625 0.40625q-0.140625 0.171875 -0.484375 0.28125q-0.328125 0.109375 -0.875 0.171875q-0.546875 0.0625 -1.421875 0.0625q-0.84375 0 -1.40625 -0.0625q-0.5625 -0.0625 -0.890625 -0.171875q-0.328125 -0.109375 -0.46875 -0.28125q-0.125 -0.1875 -0.125 -0.40625l0 -25.765629q0 -1.03125 0.53125 -1.546875q0.546875 -0.53125 1.4375 -0.53125l6.75 0q1.015625 0 1.9375 0.078125q0.921875 0.078125 2.203125 0.34375q1.28125 0.25 2.59375 0.9375q1.3125 0.671875 2.234375 1.734375q0.9375 1.046875 1.421875 2.453125q0.5 1.40625 0.5 3.15625zm-6.09375 0.421875q0 -1.515625 -0.53125 -2.484375q-0.53125 -0.96875 -1.3125 -1.4375q-0.765625 -0.46875 -1.625 -0.578125q-0.84375 -0.125 -1.75 -0.125l-2.484375 0l0 9.703125l2.609375 0q1.40625 0 2.34375 -0.375q0.9375 -0.375 1.53125 -1.046875q0.609375 -0.671875 0.90625 -1.609375q0.3125 -0.953125 0.3125 -2.046875zm31.859207 18.765629q0 0.234375 -0.09375 0.40625q-0.09375 0.171875 -0.421875 0.28125q-0.328125 0.109375 -0.96875 0.140625q-0.640625 0.046875 -1.75 0.046875q-0.9375 0 -1.5 -0.046875q-0.546875 -0.03125 -0.875 -0.15625q-0.3125 -0.125 -0.453125 -0.3125q-0.125 -0.1875 -0.203125 -0.453125l-2.578125 -6.390629q-0.453125 -1.09375 -0.90625 -1.921875q-0.4375 -0.84375 -0.984375 -1.40625q-0.53125 -0.578125 -1.25 -0.859375q-0.703125 -0.28125 -1.640625 -0.28125l-1.8125 0l0 10.906254q0 0.21875 -0.140625 0.40625q-0.140625 0.171875 -0.484375 0.28125q-0.328125 0.109375 -0.875 0.171875q-0.546875 0.0625 -1.421875 0.0625q-0.84375 0 -1.40625 -0.0625q-0.5625 -0.0625 -0.890625 -0.171875q-0.328125 -0.109375 -0.46875 -0.28125q-0.125 -0.1875 -0.125 -0.40625l0 -26.000004q0 -0.984375 0.484375 -1.40625q0.5 -0.4375 1.234375 -0.4375l7.421875 0q1.125 0 1.84375 0.046875q0.734375 0.046875 1.34375 0.109375q1.71875 0.25 3.09375 0.84375q1.390625 0.59375 2.359375 1.5625q0.96875 0.953125 1.46875 2.28125q0.515625 1.3125 0.515625 3.015625q0 1.4375 -0.375 2.625q-0.359375 1.1875 -1.078125 2.125q-0.703125 0.921875 -1.75 1.609375q-1.03125 0.671875 -2.359375 1.09375q0.640625 0.3125 1.203125 0.765625q0.5625 0.4375 1.0625 1.0625q0.5 0.625 0.9375 1.4375q0.453125 0.8125 0.875 1.828125l2.40625 5.640625q0.328125 0.84375 0.4375 1.234375q0.125 0.3906288 0.125 0.6093788zm-7.515625 -19.437504q0 -1.421875 -0.640625 -2.390625q-0.640625 -0.96875 -2.09375 -1.375q-0.453125 -0.109375 -1.015625 -0.171875q-0.5625 -0.0625 -1.5625 -0.0625l-2.609375 0l0 8.125l2.96875 0q1.234375 0 2.15625 -0.296875q0.9375 -0.3125 1.5625 -0.84375q0.625 -0.546875 0.921875 -1.296875q0.3125 -0.75 0.3125 -1.6875zm37.107758 5.53125q0 3.5625 -0.890625 6.375q-0.890625 2.8125 -2.640625 4.78125q-1.75 1.953125 -4.328125 2.9843788q-2.578125 1.03125 -5.953125 1.03125q-3.34375 0 -5.84375 -0.875q-2.484375 -0.875 -4.140625 -2.6718788q-1.65625 -1.796875 -2.5 -4.5625q-0.828125 -2.765625 -0.828125 -6.546875q0 -3.484375 0.890625 -6.25q0.890625 -2.78125 2.625 -4.71875q1.75 -1.953125 4.328125 -3.0q2.578125 -1.046875 6.0 -1.046875q3.25 0 5.734375 0.875q2.5 0.859375 4.15625 2.65625q1.671875 1.78125 2.53125 4.515625q0.859375 2.734375 0.859375 6.453125zm-6.109375 0.3125q0 -2.25 -0.359375 -4.09375q-0.359375 -1.859375 -1.21875 -3.171875q-0.84375 -1.3125 -2.265625 -2.03125q-1.40625 -0.734375 -3.53125 -0.734375q-2.15625 0 -3.59375 0.8125q-1.4375 0.8125 -2.328125 2.171875q-0.875 1.34375 -1.25 3.15625q-0.359375 1.796875 -0.359375 3.796875q0 2.359375 0.359375 4.234375q0.359375 1.859375 1.1875 3.1875q0.84375 1.328125 2.265625 2.03125q1.421875 0.6875 3.5625 0.6875q2.140625 0 3.578125 -0.796875q1.453125 -0.796875 2.328125 -2.15625q0.890625 -1.375 1.25 -3.203125q0.375 -1.828125 0.375 -3.890625zm19.35196 6.375q0 1.953125 -0.359375 3.515625q-0.359375 1.546875 -1.234375 2.65625q-0.875 1.0937538 -2.296875 1.6718788q-1.40625 0.5625 -3.5 0.5625q-0.65625 0 -1.3125 -0.09375q-0.65625 -0.09375 -1.203125 -0.25q-0.53125 -0.15625 -0.9375 -0.328125q-0.390625 -0.1875 -0.53125 -0.328125q-0.125 -0.140625 -0.21875 -0.296875q-0.078125 -0.15625 -0.15625 -0.40625q-0.0625 -0.2656288 -0.09375 -0.6406288q-0.015625 -0.375 -0.015625 -0.953125q0 -0.75 0.03125 -1.265625q0.03125 -0.515625 0.109375 -0.8125q0.078125 -0.3125 0.21875 -0.421875q0.15625 -0.125 0.375 -0.125q0.203125 0 0.46875 0.140625q0.265625 0.140625 0.59375 0.296875q0.328125 0.15625 0.765625 0.296875q0.453125 0.140625 1.046875 0.140625q0.59375 0 1.046875 -0.15625q0.453125 -0.171875 0.75 -0.578125q0.3125 -0.40625 0.46875 -1.09375q0.15625 -0.6875 0.15625 -1.78125l0 -19.671875q0 -0.21875 0.140625 -0.375q0.140625 -0.171875 0.453125 -0.28125q0.328125 -0.109375 0.90625 -0.15625q0.578125 -0.0625 1.421875 -0.0625q0.828125 0 1.375 0.0625q0.5625 0.046875 0.90625 0.15625q0.34375 0.109375 0.484375 0.28125q0.140625 0.15625 0.140625 0.375l0 19.921875zm23.177963 5.6875q0 0.640625 -0.0625 1.0781288q-0.046875 0.421875 -0.15625 0.6875q-0.109375 0.265625 -0.28125 0.390625q-0.15625 0.125 -0.359375 0.125l-14.390625 0q-0.734375 0 -1.234375 -0.421875q-0.484375 -0.4375 -0.484375 -1.4218788l0 -24.953125q0 -0.984375 0.484375 -1.40625q0.5 -0.4375 1.234375 -0.4375l14.296875 0q0.203125 0 0.359375 0.109375q0.15625 0.109375 0.265625 0.390625q0.109375 0.28125 0.15625 0.71875q0.0625 0.421875 0.0625 1.078125q0 0.625 -0.0625 1.0625q-0.046875 0.421875 -0.15625 0.6875q-0.109375 0.265625 -0.265625 0.390625q-0.15625 0.125 -0.359375 0.125l-10.21875 0l0 6.984375l8.65625 0q0.1875 0 0.359375 0.125q0.171875 0.125 0.28125 0.390625q0.109375 0.25 0.15625 0.6875q0.0625 0.421875 0.0625 1.046875q0 0.640625 -0.0625 1.0625q-0.046875 0.40625 -0.15625 0.671875q-0.109375 0.25 -0.28125 0.359375q-0.171875 0.109375 -0.359375 0.109375l-8.65625 0l0 8.078125l10.3125 0q0.203125 0 0.359375 0.125q0.171875 0.125 0.28125 0.390625q0.109375 0.265625 0.15625 0.703125q0.0625 0.421875 0.0625 1.0625zm24.274803 -2.0625q0 0.5625 -0.03125 0.953125q-0.03125 0.375 -0.09375 0.65625q-0.0625 0.28125 -0.171875 0.484375q-0.109375 0.1875 -0.359375 0.453125q-0.25 0.25 -0.953125 0.6562538q-0.6875 0.390625 -1.703125 0.765625q-1.0 0.359375 -2.296875 0.59375q-1.28125 0.25 -2.796875 0.25q-2.9375 0 -5.3125 -0.90625q-2.359375 -0.90625 -4.03125 -2.7031288q-1.65625 -1.8125 -2.546875 -4.515625q-0.875 -2.703125 -0.875 -6.28125q0 -3.65625 0.96875 -6.484375q0.984375 -2.84375 2.71875 -4.765625q1.75 -1.921875 4.1875 -2.921875q2.453125 -1.0 5.40625 -1.0q1.1875 0 2.296875 0.203125q1.109375 0.203125 2.046875 0.53125q0.9375 0.3125 1.6875 0.734375q0.765625 0.421875 1.0625 0.71875q0.296875 0.296875 0.40625 0.5q0.109375 0.1875 0.171875 0.5q0.078125 0.3125 0.109375 0.734375q0.03125 0.421875 0.03125 1.046875q0 0.65625 -0.046875 1.125q-0.046875 0.46875 -0.15625 0.75q-0.109375 0.28125 -0.265625 0.421875q-0.15625 0.125 -0.359375 0.125q-0.328125 0 -0.84375 -0.375q-0.5 -0.390625 -1.3125 -0.859375q-0.796875 -0.484375 -1.921875 -0.875q-1.109375 -0.390625 -2.671875 -0.390625q-1.703125 0 -3.046875 0.703125q-1.328125 0.703125 -2.265625 2.0q-0.9375 1.28125 -1.4375 3.125q-0.484375 1.828125 -0.484375 4.140625q0 2.515625 0.515625 4.375q0.53125 1.84375 1.484375 3.046875q0.96875 1.1875 2.328125 1.78125q1.359375 0.578125 3.0625 0.578125q1.546875 0 2.671875 -0.359375q1.140625 -0.375 1.9375 -0.8125q0.8125 -0.453125 1.328125 -0.796875q0.53125 -0.359375 0.8125 -0.359375q0.234375 0 0.359375 0.09375q0.140625 0.078125 0.21875 0.34375q0.09375 0.265625 0.125 0.75q0.046875 0.46875 0.046875 1.265625zm23.46341 -21.90625q0 0.640625 -0.0625 1.09375q-0.046875 0.453125 -0.15625 0.734375q-0.109375 0.28125 -0.28125 0.421875q-0.15625 0.125 -0.359375 0.125l-7.171875 0l0 23.078129q0 0.21875 -0.140625 0.40625q-0.140625 0.171875 -0.484375 0.28125q-0.328125 0.109375 -0.890625 0.171875q-0.5625 0.0625 -1.40625 0.0625q-0.84375 0 -1.40625 -0.0625q-0.5625 -0.0625 -0.890625 -0.171875q-0.328125 -0.109375 -0.484375 -0.28125q-0.140625 -0.1875 -0.140625 -0.40625l0 -23.078129l-7.171875 0q-0.21875 0 -0.375 -0.125q-0.15625 -0.140625 -0.265625 -0.421875q-0.109375 -0.28125 -0.171875 -0.734375q-0.046875 -0.453125 -0.046875 -1.09375q0 -0.65625 0.046875 -1.125q0.0625 -0.46875 0.171875 -0.734375q0.109375 -0.28125 0.265625 -0.40625q0.15625 -0.125 0.375 -0.125l20.1875 0q0.203125 0 0.359375 0.125q0.171875 0.125 0.28125 0.40625q0.109375 0.265625 0.15625 0.734375q0.0625 0.46875 0.0625 1.125zm22.317719 18.015625q0 1.125 -0.234375 1.71875q-0.234375 0.578125 -0.625 0.578125l-2.546875 0l0 5.187504q0 0.21875 -0.140625 0.390625q-0.125 0.15625 -0.46875 0.265625q-0.328125 0.109375 -0.859375 0.15625q-0.53125 0.0625 -1.375 0.0625q-0.796875 0 -1.34375 -0.0625q-0.53125 -0.046875 -0.859375 -0.15625q-0.3125 -0.109375 -0.4375 -0.265625q-0.125 -0.171875 -0.125 -0.390625l0 -5.187504l-10.953125 0q-0.3125 0 -0.5625 -0.078125q-0.234375 -0.078125 -0.40625 -0.34375q-0.15625 -0.28125 -0.234375 -0.796875q-0.078125 -0.53125 -0.078125 -1.390625q0 -0.703125 0.03125 -1.21875q0.03125 -0.53125 0.109375 -0.953125q0.078125 -0.421875 0.21875 -0.796875q0.15625 -0.375 0.375 -0.796875l8.890625 -15.6875q0.109375 -0.203125 0.375 -0.34375q0.265625 -0.140625 0.734375 -0.234375q0.484375 -0.109375 1.21875 -0.140625q0.734375 -0.046875 1.765625 -0.046875q1.125 0 1.921875 0.0625q0.796875 0.046875 1.265625 0.171875q0.484375 0.109375 0.703125 0.296875q0.234375 0.171875 0.234375 0.40625l0 17.25l2.546875 0q0.34375 0 0.59375 0.546875q0.265625 0.53125 0.265625 1.796875zm-9.015625 -15.515625l-0.046875 0l-7.546875 13.171875l7.59375 0l0 -13.171875z" fill-rule="nonzero"/></g></svg>