<svg xmlns="http://www.w3.org/2000/svg" width="327" height="65" fill="none"><path d="M294.886 49.913c-6.125 9.048-19.123.008-13.434-8.94 2.89-4.544 8.647-7.17 13.785-8.854 3.038 5.451 3.606 11.949-.351 17.794zm-90.248-10.672c-2.656-2.23-6.411-6.091-5.16-9.893.901-2.735 4.105-3.939 6.764-3.822 8.215.363 8.141 10.587 4.774 15.872-.284.447-.59.868-.903 1.277a24.02 24.02 0 01-5.475-3.434zm-83.452.493c-1.688 5.853-8.462 13.005-14.321 6.84-5.656-5.949 1.492-14.593 6.533-17.987a20.457 20.457 0 015.377-2.58c2.766 3.694 3.973 8.308 2.411 13.727zm-86.055-5.783c-2.847-4.784 1.502-11.41 6.386-12.576 3.99-.953 7.5 1.65 8.79 5.326 1.168 3.33.428 6.801-1.419 9.73a20.041 20.041 0 01-2.334 3.022c-4.664-.132-9.186-1.744-11.423-5.502zm291.777-4.376c-9.603-1.014-19.17-2.42-28.713.125-.684.183-1.413.389-2.17.62-4.784-7.839-14.082-12.568-23.233-11.937-12.746.878-22.104 9.071-31.337 16.981-5.379 4.607-11.367 8.897-18.642 9.532-3.812.332-7.722-.25-11.312-1.638 2.328-2.966 3.645-6.61 3.201-10.749-.409-3.814-2.683-7.266-6.546-8.192-3.139-.752-7.022.075-9.078 2.714-2.773 3.558-.471 8.015 2.12 10.921 2.205 2.475 4.94 4.46 7.94 5.887-7.516 8.221-21.296 7.465-30.986 3.87-9.389-3.482-17.588-9.936-26.194-14.93-8.115-4.708-17.366-9.512-27.011-9.296-1.809.04-3.675.325-5.516.825a17.406 17.406 0 00-1.766-1.923c-7.553-7.055-19.77-9.834-29.709-7.269-12.095 3.122-19.825 15.28-30.117 21.628-2.436 1.502-5.883 2.49-9.414 2.682 3.336-3.697 5.099-8.367 3.15-13.502-3.483-9.184-14.793-7.058-18.029 1.094-2.669 6.723 2.57 11.499 8.703 13.092 1.037.27 2.044.457 3.03.578-8.61 7.7-23.076 7.452-32.712 1.904C7.865 39.885 4.108 35.37 0 31.477v2.182c2.084 2.05 4.076 4.2 6.258 6.163 7.861 7.068 19.158 10.157 29.43 7.301 3.815-1.06 8.082-3.273 11.347-6.291 6.476.248 11.934-2.627 17.373-6.99 5.268-4.224 9.973-9.124 15.437-13.112 5.314-3.879 11.41-5.433 17.96-4.95 7.123.525 15.233 3.68 19.988 9.033-6.404 2.212-12.204 7.049-13.841 13.56-1.044 4.154.015 8.655 3.962 10.823 3.554 1.951 7.609 1.146 10.461-1.602 6.107-5.88 6.353-15.313 1.973-22.007 7.417-1.683 15.41.683 22.375 3.954 17.409 8.174 33.63 25.235 54.456 21.817 4.871-.8 9.884-3.248 13.31-6.923 1.465.6 2.98 1.074 4.519 1.406 11.789 2.545 21.015-3.761 29.483-11.172 9.825-8.597 22.668-18.094 36.576-13.976 5.339 1.58 10.297 5.375 13.385 10.13-7.267 2.44-16.223 7.084-15.912 15.18.23 6.022 6.594 10.888 12.431 8.897 8.554-2.918 9.53-15.178 6.331-22.181a23.377 23.377 0 00-.534-1.082c.145-.043.292-.09.435-.131 6.707-1.984 13.54-2.127 20.465-1.488 3.087.284 6.163.664 9.24 1.002v-1.445" fill="#4E545A"/><path d="M14.768 34.666a6.419 6.419 0 1112.157 4.126 6.419 6.419 0 01-12.157-4.126" fill="#85D82A"/><path d="M16.212 45.155l1.59.54 1.588.538c.64.218.911-.113.911-.113l1.007-2.964-2.372-.806-2.371-.804-1.006 2.963s.013.429.653.646" fill="#182B3D"/><path d="M22.404 33.798c.119.097.233.2.341.307 3.305 3.276 1.48 8.018-3.24 7.618-3.115-.263-5.266-3.049-4.54-6.23.78-3.41 5.063-3.634 7.439-1.695z" fill="#9DE14D"/><path d="M16.835 39.478c-.79-.98-1.132-3.055.498-3.219 1.228-.123 2.89.995 2.816 2.307-.103 1.815-2.266 2.216-3.314.912" fill="#BFFF4E"/><path d="M16.377 44.058c-.72-2.231 3.937-2.18 3.227-.056-.483 1.447-2.76 1.5-3.227.056z" fill="#321917"/><path d="M78.991 32.67a6.418 6.418 0 01-.91 9.031 6.418 6.418 0 11.91-9.032" fill="#FFDE2E"/><path d="M69.33 28.337l-1.3 1.062-1.3 1.061c-.523.428-.386.833-.386.833l1.98 2.425 1.94-1.584 1.94-1.585-1.981-2.424s-.37-.215-.893.212" fill="#182B3D"/><path d="M75.677 39.61a4.949 4.949 0 01-.441.126c-4.53 1.067-7.583-2.995-4.743-6.785 1.874-2.502 5.377-2.85 7.689-.547 2.478 2.467.4 6.217-2.505 7.205z" fill="#FFF82D"/><path d="M73.814 31.875c1.25-.15 3.19.66 2.465 2.128-.546 1.106-2.376 1.923-3.448 1.165-1.485-1.05-.68-3.096.983-3.293" fill="#fff"/><path d="M70.177 29.06c2.273.57-.24 4.493-1.664 2.766-.97-1.177.191-3.137 1.663-2.767z" fill="#321917"/><path d="M168.744 54.351a6.42 6.42 0 11-11.46-5.786 6.42 6.42 0 0111.46 5.786z" fill="#85D82A"/><path d="M168.778 43.762l-1.498-.756-1.498-.756c-.603-.305-.919-.015-.919-.015l-1.41 2.795 2.236 1.128 2.235 1.128 1.41-2.794s.047-.425-.556-.73" fill="#182B3D"/><path d="M161.058 54.142a5.204 5.204 0 01-.296-.352c-2.815-3.705-.344-8.145 4.273-7.091 3.048.696 4.788 3.756 3.625 6.804-1.248 3.267-5.52 2.891-7.602.64" fill="#9DE14D"/><path d="M167.363 49.297c.645 1.082.695 3.183-.942 3.117-1.234-.05-2.723-1.389-2.466-2.678.356-1.782 2.553-1.877 3.408-.44" fill="#BFFF4E"/><path d="M168.459 44.825c.402 2.31-4.203 1.608-3.203-.395.68-1.365 2.943-1.1 3.203.395z" fill="#321917"/><path d="M137.466 15.686a6.42 6.42 0 1111.644 5.41 6.42 6.42 0 01-11.644-5.41z" fill="#FFDE2E"/><path d="M137.776 26.27a5007.324 5007.324 0 003.043 1.415c.613.285.919-.015.919-.015l1.318-2.84-2.27-1.054-2.272-1.056-1.318 2.84s-.033.426.58.71" fill="#182B3D"/><path d="M147.591 13.988c.108.11.211.223.308.342 2.933 3.612.608 8.13-4.041 7.227-3.068-.597-4.908-3.599-3.843-6.683 1.141-3.305 5.423-3.069 7.576-.886" fill="#FFF82D"/><path d="M144.927 16.484c-.679-1.06-.797-3.159.841-3.147 1.235.01 2.766 1.3 2.552 2.597-.298 1.793-2.49 1.96-3.393.55" fill="#fff"/><path d="M138.058 25.196c-.477-2.295 4.148-1.743 3.215.292-.636 1.386-2.907 1.194-3.215-.292z" fill="#321917"/><path d="M211.931 55.234a6.42 6.42 0 11-11.756 5.16 6.42 6.42 0 0111.756-5.16z" fill="#E1555B"/><path d="M203.779 48.47l-1.537.674-1.536.674c-.619.272-.597.699-.597.699l1.259 2.867 2.293-1.007 2.293-1.006-1.258-2.867s-.299-.306-.917-.034" fill="#182B3D"/><path d="M206.876 61.03c-.153.01-.307.011-.46.005-4.649-.186-6.503-4.917-2.751-7.809 2.476-1.907 5.944-1.303 7.555 1.535 1.726 3.04-1.283 6.097-4.344 6.27z" fill="#FF4BA2"/><path d="M207.153 53.08c1.244.191 2.897 1.491 1.805 2.711-.823.92-2.804 1.217-3.635.198-1.149-1.408.176-3.163 1.83-2.91z" fill="#FF9697"/><path d="M204.4 49.392c2.038 1.16-1.433 4.265-2.344 2.219-.619-1.394 1.026-2.97 2.344-2.22z" fill="#321917"/><path d="M278.086 28.155a6.42 6.42 0 11-12.787 1.151 6.42 6.42 0 0112.787-1.151z" fill="#E1555B"/><path d="M272.512 19.15l-1.671.151-1.671.15c-.673.061-.787.474-.787.474l.281 3.118 2.494-.226 2.495-.224-.282-3.118s-.185-.386-.859-.325" fill="#182B3D"/><path d="M271.45 32.043a4.92 4.92 0 01-.436-.143c-4.349-1.656-4.601-6.73-.125-8.278 2.955-1.021 6.05.655 6.675 3.857.669 3.433-3.156 5.373-6.114 4.564z" fill="#FF4BA2"/><path d="M274.242 24.593c1.119.578 2.273 2.334.849 3.144-1.073.611-3.046.261-3.509-.968-.642-1.701 1.173-2.943 2.66-2.176" fill="#FF9697"/><path d="M272.807 20.22c1.562 1.748-2.717 3.589-2.929 1.36-.144-1.519 1.917-2.491 2.929-1.36z" fill="#321917"/><path d="M188.509 26.983a6.42 6.42 0 118.11-9.95 6.42 6.42 0 01-8.11 9.95z" fill="#FFDE2E"/><path d="M198.841 29.29l1.06-1.3 1.06-1.301c.428-.525.211-.895.211-.895l-2.426-1.977-1.582 1.941-1.582 1.942 2.427 1.977s.405.137.832-.387" fill="#182B3D"/><path d="M190.834 17.802c.132-.077.268-.149.407-.213 4.223-1.954 8.03 1.413 6.008 5.696-1.334 2.827-4.696 3.87-7.422 2.079-2.924-1.92-1.639-6.012 1.007-7.562z" fill="#FFF82D"/><path d="M195.459 21.296c-1.194.397-3.258-.006-2.842-1.59.312-1.194 1.941-2.36 3.145-1.833 1.664.73 1.285 2.895-.303 3.423" fill="#fff"/><path d="M197.872 28.751c-2.343-.103-.669-4.45 1.073-3.043 1.188.957.443 3.11-1.073 3.043z" fill="#321917"/><path d="M227.666 34.876a6.42 6.42 0 1110.57-7.288 6.42 6.42 0 01-10.57 7.288z" fill="#85D82A"/><path d="M236.946 39.977l1.382-.953 1.381-.952c.557-.384.452-.8.452-.8l-1.776-2.576-2.062 1.422-2.061 1.421 1.777 2.578s.351.244.907-.14z" fill="#182B3D"/><path d="M232.253 25.362c.149-.038.299-.068.45-.09 4.602-.696 7.316 3.6 4.178 7.147-2.071 2.342-5.591 2.403-7.709-.078-2.27-2.66.107-6.23 3.081-6.979" fill="#9DE14D"/><path d="M233.539 29.834c-1.258.047-3.127-.916-2.285-2.321.634-1.06 2.525-1.725 3.532-.882 1.394 1.166.425 3.14-1.247 3.203" fill="#BFFF4E"/><path d="M236.165 39.19c-2.22-.753.602-4.46 1.882-2.622.872 1.251-.445 3.11-1.882 2.623z" fill="#321917"/><path d="M305.391 19.284a6.42 6.42 0 1112.838.206 6.42 6.42 0 01-12.838-.206z" fill="#85D82A"/><path d="M309.984 28.827a2876.013 2876.013 0 013.355.053c.676.01.833-.388.833-.388l.05-3.13-2.503-.04-2.505-.039-.05 3.13s.145.403.82.414" fill="#182B3D"/><path d="M309.966 22.524a4.951 4.951 0 01-.392-.24c-3.848-2.616-2.92-7.611 1.793-8.082 3.11-.31 5.734 2.036 5.602 5.295-.143 3.495-4.312 4.498-7.003 3.027z" fill="#9DE14D"/><path d="M314.402 15.92c.955.82 1.671 2.797.099 3.256-1.185.346-3.023-.45-3.19-1.753-.231-1.803 1.822-2.593 3.091-1.503z" fill="#BFFF4E"/><path d="M309.805 27.731c-1.369-1.902 3.08-3.28 3.056-1.042-.018 1.526-2.17 2.274-3.056 1.042z" fill="#321917"/><path d="M308.583 41.73a6.417 6.417 0 014.517 7.873 6.419 6.419 0 11-4.517-7.874z" fill="#FFDE2E"/><path d="M298.205 43.83l-.439 1.62-.438 1.62c-.178.652.17.901.17.901l3.022.819.654-2.417.655-2.417-3.021-.819s-.426.04-.603.693" fill="#182B3D"/><path d="M309.929 49.3a4.774 4.774 0 01-.284.36c-3.063 3.505-7.91 1.98-7.807-2.755.068-3.125 2.714-5.447 5.934-4.921 3.451.563 3.943 4.824 2.157 7.317z" fill="#FFF82D"/><path d="M303.911 44.097c.929-.849 2.978-1.32 3.243.295.201 1.218-.812 2.948-2.125 2.956-1.818.01-2.353-2.123-1.118-3.25" fill="#fff"/><path d="M299.311 43.927c2.182-.86 2.423 3.793.259 3.218-1.474-.392-1.671-2.662-.259-3.218z" fill="#321917"/><path d="M27.746 18.341a6.418 6.418 0 1110.511-7.37 6.419 6.419 0 11-10.511 7.37" fill="#E1555B"/><path d="M37.063 23.372l1.374-.963 1.374-.963c.553-.389.446-.803.446-.803L38.46 18.08l-2.05 1.438-2.05 1.437 1.796 2.563s.353.242.907-.146" fill="#182B3D"/><path d="M31.97 9.016c.15-.04.3-.07.45-.095 4.596-.73 7.343 3.544 4.233 7.116-2.053 2.357-5.572 2.446-7.708-.019-2.291-2.643.058-6.23 3.026-7.002z" fill="#FF4BA2"/><path d="M34.664 13.523c-1.257.057-3.133-.892-2.302-2.303.626-1.064 2.51-1.744 3.525-.91 1.403 1.156.449 3.138-1.223 3.213" fill="#FF9697"/><path d="M36.275 22.59c-2.226-.737.567-4.464 1.862-2.638.881 1.245-.421 3.115-1.862 2.638z" fill="#321917"/><path d="M98.95 5.481a6.42 6.42 0 1112.627 2.325A6.42 6.42 0 0198.95 5.48z" fill="#85D82A"/><path d="M101.904 15.651a2288.63 2288.63 0 003.3.608c.665.122.885-.244.885-.244l.567-3.08-2.463-.452-2.463-.453-.566 3.078s.075.42.74.543" fill="#182B3D"/><path d="M108.296 1.665c.132.079.259.164.382.255 3.745 2.763 2.625 7.719-2.103 8.007-3.12.19-5.652-2.256-5.393-5.508.277-3.486 4.482-4.328 7.114-2.754" fill="#9DE14D"/><path d="M106.981 5.367c-.923-.857-1.562-2.86.027-3.257 1.198-.3 3.004.566 3.12 1.875.161 1.81-1.92 2.52-3.147 1.382z" fill="#BFFF4E"/><path d="M101.906 14.54c-1.036-2.103 3.58-2.726 3.185-.522-.269 1.502-2.514 1.885-3.185.523z" fill="#321917"/><path d="M128.674 49.816a6.42 6.42 0 11-9.433 8.71 6.42 6.42 0 019.433-8.71" fill="#E1555B"/><path d="M118.767 46.076l-1.233 1.139-1.233 1.137c-.496.46-.334.855-.334.855l2.123 2.3 1.84-1.699 1.84-1.698-2.124-2.3s-.382-.193-.879.266" fill="#182B3D"/><path d="M125.786 56.943c-.142.059-.286.11-.433.154-4.457 1.339-7.751-2.53-5.146-6.486 1.719-2.61 5.195-3.17 7.642-1.012 2.624 2.313.775 6.183-2.063 7.344" fill="#FF4BA2"/><path d="M123.453 49.336c1.239-.225 3.225.465 2.591 1.975-.479 1.138-2.255 2.064-3.372 1.372-1.546-.958-.865-3.048.781-3.347z" fill="#FF9697"/><path d="M119.651 46.745c2.304.432.034 4.5-1.493 2.863-1.04-1.116.001-3.143 1.493-2.863z" fill="#321917"/></svg>